<mxfile host="app.diagrams.net" modified="2023-12-12T10:55:57.134Z" agent="Mozilla/5.0 (Macintosh; Intel Mac OS X 10_15_7) AppleWebKit/605.1.15 (KHTML, like Gecko) Version/15.6.1 Safari/605.1.15" etag="jzG11w4WsD0fTKeexIHC" version="22.1.7" type="github">
  <diagram id="R2lEEEUBdFMjLlhIrx00" name="Page-1">
    <mxGraphModel dx="1624" dy="988" grid="1" gridSize="10" guides="1" tooltips="1" connect="1" arrows="1" fold="1" page="1" pageScale="1" pageWidth="1169" pageHeight="1654" math="0" shadow="0" extFonts="Permanent Marker^https://fonts.googleapis.com/css?family=Permanent+Marker">
      <root>
        <mxCell id="0" />
        <mxCell id="1" parent="0" />
        <mxCell id="-wmhV7_I5_4gsShTXuPr-5" value="Fachliche Kompetenzen" style="swimlane;fontStyle=0;childLayout=stackLayout;horizontal=1;startSize=30;horizontalStack=0;resizeParent=1;resizeParentMax=0;resizeLast=0;collapsible=1;marginBottom=0;whiteSpace=wrap;html=1;fillColor=#f5f5f5;fontColor=#333333;strokeColor=#666666;" parent="1" vertex="1">
          <mxGeometry x="50" y="190" width="140" height="150" as="geometry" />
        </mxCell>
        <mxCell id="-wmhV7_I5_4gsShTXuPr-6" value="Label = &quot;F&quot;" style="text;strokeColor=none;fillColor=none;align=left;verticalAlign=middle;spacingLeft=4;spacingRight=4;overflow=hidden;points=[[0,0.5],[1,0.5]];portConstraint=eastwest;rotatable=0;whiteSpace=wrap;html=1;" parent="-wmhV7_I5_4gsShTXuPr-5" vertex="1">
          <mxGeometry y="30" width="140" height="30" as="geometry" />
        </mxCell>
        <mxCell id="-wmhV7_I5_4gsShTXuPr-7" value="ID = &quot;HH-F&quot;" style="text;strokeColor=none;fillColor=none;align=left;verticalAlign=middle;spacingLeft=4;spacingRight=4;overflow=hidden;points=[[0,0.5],[1,0.5]];portConstraint=eastwest;rotatable=0;whiteSpace=wrap;html=1;" parent="-wmhV7_I5_4gsShTXuPr-5" vertex="1">
          <mxGeometry y="60" width="140" height="30" as="geometry" />
        </mxCell>
        <mxCell id="-wmhV7_I5_4gsShTXuPr-72" value="ParentID = &quot;HH&quot;" style="text;strokeColor=none;fillColor=none;align=left;verticalAlign=middle;spacingLeft=4;spacingRight=4;overflow=hidden;points=[[0,0.5],[1,0.5]];portConstraint=eastwest;rotatable=0;whiteSpace=wrap;html=1;" parent="-wmhV7_I5_4gsShTXuPr-5" vertex="1">
          <mxGeometry y="90" width="140" height="30" as="geometry" />
        </mxCell>
        <mxCell id="-wmhV7_I5_4gsShTXuPr-27" value="Type = &quot;Folder&quot;" style="text;strokeColor=none;fillColor=none;align=left;verticalAlign=middle;spacingLeft=4;spacingRight=4;overflow=hidden;points=[[0,0.5],[1,0.5]];portConstraint=eastwest;rotatable=0;whiteSpace=wrap;html=1;" parent="-wmhV7_I5_4gsShTXuPr-5" vertex="1">
          <mxGeometry y="120" width="140" height="30" as="geometry" />
        </mxCell>
        <mxCell id="-wmhV7_I5_4gsShTXuPr-9" value="Land" style="swimlane;fontStyle=0;childLayout=stackLayout;horizontal=1;startSize=30;horizontalStack=0;resizeParent=1;resizeParentMax=0;resizeLast=0;collapsible=1;marginBottom=0;whiteSpace=wrap;html=1;" parent="1" vertex="1">
          <mxGeometry x="160" y="10" width="140" height="120" as="geometry" />
        </mxCell>
        <mxCell id="-wmhV7_I5_4gsShTXuPr-10" value="Label = &quot;HH&quot;" style="text;strokeColor=none;fillColor=none;align=left;verticalAlign=middle;spacingLeft=4;spacingRight=4;overflow=hidden;points=[[0,0.5],[1,0.5]];portConstraint=eastwest;rotatable=0;whiteSpace=wrap;html=1;" parent="-wmhV7_I5_4gsShTXuPr-9" vertex="1">
          <mxGeometry y="30" width="140" height="30" as="geometry" />
        </mxCell>
        <mxCell id="-wmhV7_I5_4gsShTXuPr-12" value="ID = &quot;HH&quot;" style="text;strokeColor=none;fillColor=none;align=left;verticalAlign=middle;spacingLeft=4;spacingRight=4;overflow=hidden;points=[[0,0.5],[1,0.5]];portConstraint=eastwest;rotatable=0;whiteSpace=wrap;html=1;" parent="-wmhV7_I5_4gsShTXuPr-9" vertex="1">
          <mxGeometry y="60" width="140" height="30" as="geometry" />
        </mxCell>
        <mxCell id="-wmhV7_I5_4gsShTXuPr-24" value="Type = null" style="text;strokeColor=none;fillColor=none;align=left;verticalAlign=middle;spacingLeft=4;spacingRight=4;overflow=hidden;points=[[0,0.5],[1,0.5]];portConstraint=eastwest;rotatable=0;whiteSpace=wrap;html=1;" parent="-wmhV7_I5_4gsShTXuPr-9" vertex="1">
          <mxGeometry y="90" width="140" height="30" as="geometry" />
        </mxCell>
        <mxCell id="-wmhV7_I5_4gsShTXuPr-18" value="Überfachliche Kompetenzen" style="swimlane;fontStyle=0;childLayout=stackLayout;horizontal=1;startSize=30;horizontalStack=0;resizeParent=1;resizeParentMax=0;resizeLast=0;collapsible=1;marginBottom=0;whiteSpace=wrap;html=1;fillColor=#d5e8d4;strokeColor=#82b366;" parent="1" vertex="1">
          <mxGeometry x="969" y="110" width="140" height="200" as="geometry" />
        </mxCell>
        <mxCell id="-wmhV7_I5_4gsShTXuPr-19" value="Label = &quot;UF&quot;" style="text;strokeColor=none;fillColor=none;align=left;verticalAlign=middle;spacingLeft=4;spacingRight=4;overflow=hidden;points=[[0,0.5],[1,0.5]];portConstraint=eastwest;rotatable=0;whiteSpace=wrap;html=1;" parent="-wmhV7_I5_4gsShTXuPr-18" vertex="1">
          <mxGeometry y="30" width="140" height="30" as="geometry" />
        </mxCell>
        <mxCell id="-wmhV7_I5_4gsShTXuPr-20" value="ID = &quot;HH-UF&quot;" style="text;strokeColor=none;fillColor=none;align=left;verticalAlign=middle;spacingLeft=4;spacingRight=4;overflow=hidden;points=[[0,0.5],[1,0.5]];portConstraint=eastwest;rotatable=0;whiteSpace=wrap;html=1;" parent="-wmhV7_I5_4gsShTXuPr-18" vertex="1">
          <mxGeometry y="60" width="140" height="30" as="geometry" />
        </mxCell>
        <mxCell id="-wmhV7_I5_4gsShTXuPr-28" value="Type = &quot;Subject&quot;" style="text;strokeColor=none;fillColor=none;align=left;verticalAlign=middle;spacingLeft=4;spacingRight=4;overflow=hidden;points=[[0,0.5],[1,0.5]];portConstraint=eastwest;rotatable=0;whiteSpace=wrap;html=1;" parent="-wmhV7_I5_4gsShTXuPr-18" vertex="1">
          <mxGeometry y="90" width="140" height="30" as="geometry" />
        </mxCell>
        <mxCell id="-wmhV7_I5_4gsShTXuPr-353" value="Responsible = Tobias Dorn KAIFU" style="text;strokeColor=none;fillColor=#E6E6E6;align=left;verticalAlign=middle;spacingLeft=4;spacingRight=4;overflow=hidden;points=[[0,0.5],[1,0.5]];portConstraint=eastwest;rotatable=0;whiteSpace=wrap;html=1;" parent="-wmhV7_I5_4gsShTXuPr-18" vertex="1">
          <mxGeometry y="120" width="140" height="50" as="geometry" />
        </mxCell>
        <mxCell id="-wmhV7_I5_4gsShTXuPr-354" value="Status = Veröffentlicht (BETA)" style="text;strokeColor=#2D7600;fillColor=#60a917;align=left;verticalAlign=middle;spacingLeft=4;spacingRight=4;overflow=hidden;points=[[0,0.5],[1,0.5]];portConstraint=eastwest;rotatable=0;whiteSpace=wrap;html=1;fontColor=#ffffff;" parent="-wmhV7_I5_4gsShTXuPr-18" vertex="1">
          <mxGeometry y="170" width="140" height="30" as="geometry" />
        </mxCell>
        <mxCell id="-wmhV7_I5_4gsShTXuPr-22" value="" style="edgeStyle=elbowEdgeStyle;elbow=vertical;endArrow=classic;html=1;rounded=0;exitX=0.529;exitY=1.083;exitDx=0;exitDy=0;exitPerimeter=0;entryX=0.5;entryY=0;entryDx=0;entryDy=0;" parent="1" source="-wmhV7_I5_4gsShTXuPr-24" target="-wmhV7_I5_4gsShTXuPr-5" edge="1">
          <mxGeometry width="50" height="50" relative="1" as="geometry">
            <mxPoint x="370" y="310" as="sourcePoint" />
            <mxPoint x="420" y="260" as="targetPoint" />
            <Array as="points">
              <mxPoint x="180" y="140" />
            </Array>
          </mxGeometry>
        </mxCell>
        <mxCell id="-wmhV7_I5_4gsShTXuPr-23" value="" style="edgeStyle=elbowEdgeStyle;elbow=vertical;endArrow=classic;html=1;rounded=0;exitX=0.536;exitY=1.05;exitDx=0;exitDy=0;exitPerimeter=0;" parent="1" source="-wmhV7_I5_4gsShTXuPr-24" target="-wmhV7_I5_4gsShTXuPr-18" edge="1">
          <mxGeometry width="50" height="50" relative="1" as="geometry">
            <mxPoint x="228" y="180" as="sourcePoint" />
            <mxPoint x="130" y="200" as="targetPoint" />
            <Array as="points">
              <mxPoint x="640" y="140" />
            </Array>
          </mxGeometry>
        </mxCell>
        <mxCell id="-wmhV7_I5_4gsShTXuPr-29" value="Personale Kompetenzen" style="swimlane;fontStyle=0;childLayout=stackLayout;horizontal=1;startSize=30;horizontalStack=0;resizeParent=1;resizeParentMax=0;resizeLast=0;collapsible=1;marginBottom=0;whiteSpace=wrap;html=1;fillColor=#dae8fc;strokeColor=#6c8ebf;" parent="1" vertex="1">
          <mxGeometry x="839" y="320" width="140" height="150" as="geometry" />
        </mxCell>
        <mxCell id="-wmhV7_I5_4gsShTXuPr-30" value="Label = &quot;P&quot;" style="text;strokeColor=none;fillColor=none;align=left;verticalAlign=middle;spacingLeft=4;spacingRight=4;overflow=hidden;points=[[0,0.5],[1,0.5]];portConstraint=eastwest;rotatable=0;whiteSpace=wrap;html=1;" parent="-wmhV7_I5_4gsShTXuPr-29" vertex="1">
          <mxGeometry y="30" width="140" height="30" as="geometry" />
        </mxCell>
        <mxCell id="-wmhV7_I5_4gsShTXuPr-31" value="ID = &quot;HH-UF-P&quot;" style="text;strokeColor=none;fillColor=none;align=left;verticalAlign=middle;spacingLeft=4;spacingRight=4;overflow=hidden;points=[[0,0.5],[1,0.5]];portConstraint=eastwest;rotatable=0;whiteSpace=wrap;html=1;" parent="-wmhV7_I5_4gsShTXuPr-29" vertex="1">
          <mxGeometry y="60" width="140" height="30" as="geometry" />
        </mxCell>
        <mxCell id="-wmhV7_I5_4gsShTXuPr-64" value="ParentID = &quot;HH-UF&quot;" style="text;strokeColor=none;fillColor=none;align=left;verticalAlign=middle;spacingLeft=4;spacingRight=4;overflow=hidden;points=[[0,0.5],[1,0.5]];portConstraint=eastwest;rotatable=0;whiteSpace=wrap;html=1;" parent="-wmhV7_I5_4gsShTXuPr-29" vertex="1">
          <mxGeometry y="90" width="140" height="30" as="geometry" />
        </mxCell>
        <mxCell id="-wmhV7_I5_4gsShTXuPr-32" value="Type = &quot;Category&quot;" style="text;strokeColor=none;fillColor=none;align=left;verticalAlign=middle;spacingLeft=4;spacingRight=4;overflow=hidden;points=[[0,0.5],[1,0.5]];portConstraint=eastwest;rotatable=0;whiteSpace=wrap;html=1;" parent="-wmhV7_I5_4gsShTXuPr-29" vertex="1">
          <mxGeometry y="120" width="140" height="30" as="geometry" />
        </mxCell>
        <mxCell id="-wmhV7_I5_4gsShTXuPr-33" value="Lernmethodische Kompetenzen" style="swimlane;fontStyle=0;childLayout=stackLayout;horizontal=1;startSize=30;horizontalStack=0;resizeParent=1;resizeParentMax=0;resizeLast=0;collapsible=1;marginBottom=0;whiteSpace=wrap;html=1;fillColor=#dae8fc;strokeColor=#6c8ebf;" parent="1" vertex="1">
          <mxGeometry x="839" y="480" width="140" height="150" as="geometry" />
        </mxCell>
        <mxCell id="-wmhV7_I5_4gsShTXuPr-34" value="Label = &quot;P&quot;" style="text;strokeColor=none;fillColor=none;align=left;verticalAlign=middle;spacingLeft=4;spacingRight=4;overflow=hidden;points=[[0,0.5],[1,0.5]];portConstraint=eastwest;rotatable=0;whiteSpace=wrap;html=1;" parent="-wmhV7_I5_4gsShTXuPr-33" vertex="1">
          <mxGeometry y="30" width="140" height="30" as="geometry" />
        </mxCell>
        <mxCell id="-wmhV7_I5_4gsShTXuPr-35" value="ID = &quot;HH-UF-L&quot;" style="text;strokeColor=none;fillColor=none;align=left;verticalAlign=middle;spacingLeft=4;spacingRight=4;overflow=hidden;points=[[0,0.5],[1,0.5]];portConstraint=eastwest;rotatable=0;whiteSpace=wrap;html=1;" parent="-wmhV7_I5_4gsShTXuPr-33" vertex="1">
          <mxGeometry y="60" width="140" height="30" as="geometry" />
        </mxCell>
        <mxCell id="-wmhV7_I5_4gsShTXuPr-65" value="ParentID = &quot;HH-UF&quot;" style="text;strokeColor=none;fillColor=none;align=left;verticalAlign=middle;spacingLeft=4;spacingRight=4;overflow=hidden;points=[[0,0.5],[1,0.5]];portConstraint=eastwest;rotatable=0;whiteSpace=wrap;html=1;" parent="-wmhV7_I5_4gsShTXuPr-33" vertex="1">
          <mxGeometry y="90" width="140" height="30" as="geometry" />
        </mxCell>
        <mxCell id="-wmhV7_I5_4gsShTXuPr-36" value="Type = &quot;Category&quot;" style="text;strokeColor=none;fillColor=none;align=left;verticalAlign=middle;spacingLeft=4;spacingRight=4;overflow=hidden;points=[[0,0.5],[1,0.5]];portConstraint=eastwest;rotatable=0;whiteSpace=wrap;html=1;" parent="-wmhV7_I5_4gsShTXuPr-33" vertex="1">
          <mxGeometry y="120" width="140" height="30" as="geometry" />
        </mxCell>
        <mxCell id="-wmhV7_I5_4gsShTXuPr-37" value="Motivationale Einstellungen" style="swimlane;fontStyle=0;childLayout=stackLayout;horizontal=1;startSize=30;horizontalStack=0;resizeParent=1;resizeParentMax=0;resizeLast=0;collapsible=1;marginBottom=0;whiteSpace=wrap;html=1;fillColor=#dae8fc;strokeColor=#6c8ebf;" parent="1" vertex="1">
          <mxGeometry x="839" y="640" width="140" height="150" as="geometry" />
        </mxCell>
        <mxCell id="-wmhV7_I5_4gsShTXuPr-38" value="Label = &quot;P&quot;" style="text;strokeColor=none;fillColor=none;align=left;verticalAlign=middle;spacingLeft=4;spacingRight=4;overflow=hidden;points=[[0,0.5],[1,0.5]];portConstraint=eastwest;rotatable=0;whiteSpace=wrap;html=1;" parent="-wmhV7_I5_4gsShTXuPr-37" vertex="1">
          <mxGeometry y="30" width="140" height="30" as="geometry" />
        </mxCell>
        <mxCell id="-wmhV7_I5_4gsShTXuPr-39" value="ID = &quot;HH-UF-M&quot;" style="text;strokeColor=none;fillColor=none;align=left;verticalAlign=middle;spacingLeft=4;spacingRight=4;overflow=hidden;points=[[0,0.5],[1,0.5]];portConstraint=eastwest;rotatable=0;whiteSpace=wrap;html=1;" parent="-wmhV7_I5_4gsShTXuPr-37" vertex="1">
          <mxGeometry y="60" width="140" height="30" as="geometry" />
        </mxCell>
        <mxCell id="-wmhV7_I5_4gsShTXuPr-70" value="ParentID = &quot;HH-UF&quot;" style="text;strokeColor=none;fillColor=none;align=left;verticalAlign=middle;spacingLeft=4;spacingRight=4;overflow=hidden;points=[[0,0.5],[1,0.5]];portConstraint=eastwest;rotatable=0;whiteSpace=wrap;html=1;" parent="-wmhV7_I5_4gsShTXuPr-37" vertex="1">
          <mxGeometry y="90" width="140" height="30" as="geometry" />
        </mxCell>
        <mxCell id="-wmhV7_I5_4gsShTXuPr-40" value="Type = &quot;Category&quot;" style="text;strokeColor=none;fillColor=none;align=left;verticalAlign=middle;spacingLeft=4;spacingRight=4;overflow=hidden;points=[[0,0.5],[1,0.5]];portConstraint=eastwest;rotatable=0;whiteSpace=wrap;html=1;" parent="-wmhV7_I5_4gsShTXuPr-37" vertex="1">
          <mxGeometry y="120" width="140" height="30" as="geometry" />
        </mxCell>
        <mxCell id="-wmhV7_I5_4gsShTXuPr-41" value="Soziale Kompetenzen" style="swimlane;fontStyle=0;childLayout=stackLayout;horizontal=1;startSize=30;horizontalStack=0;resizeParent=1;resizeParentMax=0;resizeLast=0;collapsible=1;marginBottom=0;whiteSpace=wrap;html=1;fillColor=#dae8fc;strokeColor=#6c8ebf;" parent="1" vertex="1">
          <mxGeometry x="839" y="810" width="140" height="150" as="geometry" />
        </mxCell>
        <mxCell id="-wmhV7_I5_4gsShTXuPr-42" value="Label = &quot;P&quot;" style="text;strokeColor=none;fillColor=none;align=left;verticalAlign=middle;spacingLeft=4;spacingRight=4;overflow=hidden;points=[[0,0.5],[1,0.5]];portConstraint=eastwest;rotatable=0;whiteSpace=wrap;html=1;" parent="-wmhV7_I5_4gsShTXuPr-41" vertex="1">
          <mxGeometry y="30" width="140" height="30" as="geometry" />
        </mxCell>
        <mxCell id="-wmhV7_I5_4gsShTXuPr-43" value="ID = &quot;HH-UF-S&quot;" style="text;strokeColor=none;fillColor=none;align=left;verticalAlign=middle;spacingLeft=4;spacingRight=4;overflow=hidden;points=[[0,0.5],[1,0.5]];portConstraint=eastwest;rotatable=0;whiteSpace=wrap;html=1;" parent="-wmhV7_I5_4gsShTXuPr-41" vertex="1">
          <mxGeometry y="60" width="140" height="30" as="geometry" />
        </mxCell>
        <mxCell id="-wmhV7_I5_4gsShTXuPr-71" value="ParentID = &quot;HH-UF&quot;" style="text;strokeColor=none;fillColor=none;align=left;verticalAlign=middle;spacingLeft=4;spacingRight=4;overflow=hidden;points=[[0,0.5],[1,0.5]];portConstraint=eastwest;rotatable=0;whiteSpace=wrap;html=1;" parent="-wmhV7_I5_4gsShTXuPr-41" vertex="1">
          <mxGeometry y="90" width="140" height="30" as="geometry" />
        </mxCell>
        <mxCell id="-wmhV7_I5_4gsShTXuPr-44" value="Type = &quot;Category&quot;" style="text;strokeColor=none;fillColor=none;align=left;verticalAlign=middle;spacingLeft=4;spacingRight=4;overflow=hidden;points=[[0,0.5],[1,0.5]];portConstraint=eastwest;rotatable=0;whiteSpace=wrap;html=1;" parent="-wmhV7_I5_4gsShTXuPr-41" vertex="1">
          <mxGeometry y="120" width="140" height="30" as="geometry" />
        </mxCell>
        <mxCell id="-wmhV7_I5_4gsShTXuPr-45" value="" style="edgeStyle=elbowEdgeStyle;elbow=vertical;endArrow=none;html=1;rounded=0;entryX=1.007;entryY=0.133;entryDx=0;entryDy=0;entryPerimeter=0;startArrow=classic;startFill=1;endFill=0;" parent="1" target="-wmhV7_I5_4gsShTXuPr-29" edge="1">
          <mxGeometry width="50" height="50" relative="1" as="geometry">
            <mxPoint x="1039" y="310" as="sourcePoint" />
            <mxPoint x="999" y="200" as="targetPoint" />
            <Array as="points">
              <mxPoint x="1009" y="340" />
            </Array>
          </mxGeometry>
        </mxCell>
        <mxCell id="-wmhV7_I5_4gsShTXuPr-46" value="" style="edgeStyle=elbowEdgeStyle;elbow=vertical;endArrow=none;html=1;rounded=0;entryX=1.007;entryY=0.133;entryDx=0;entryDy=0;entryPerimeter=0;startArrow=classic;startFill=1;endFill=0;" parent="1" edge="1">
          <mxGeometry width="50" height="50" relative="1" as="geometry">
            <mxPoint x="1038" y="310" as="sourcePoint" />
            <mxPoint x="979" y="495.96000000000004" as="targetPoint" />
            <Array as="points">
              <mxPoint x="1048.02" y="496" />
            </Array>
          </mxGeometry>
        </mxCell>
        <mxCell id="-wmhV7_I5_4gsShTXuPr-47" value="" style="edgeStyle=elbowEdgeStyle;elbow=vertical;endArrow=none;html=1;rounded=0;entryX=0.993;entryY=0.103;entryDx=0;entryDy=0;entryPerimeter=0;startArrow=classic;startFill=1;endFill=0;" parent="1" target="-wmhV7_I5_4gsShTXuPr-37" edge="1">
          <mxGeometry width="50" height="50" relative="1" as="geometry">
            <mxPoint x="1040" y="310" as="sourcePoint" />
            <mxPoint x="979" y="635.96" as="targetPoint" />
            <Array as="points">
              <mxPoint x="1009" y="655" />
            </Array>
          </mxGeometry>
        </mxCell>
        <mxCell id="-wmhV7_I5_4gsShTXuPr-48" value="" style="edgeStyle=elbowEdgeStyle;elbow=vertical;endArrow=none;html=1;rounded=0;entryX=1.014;entryY=0.117;entryDx=0;entryDy=0;entryPerimeter=0;startArrow=classic;startFill=1;endFill=0;" parent="1" target="-wmhV7_I5_4gsShTXuPr-41" edge="1">
          <mxGeometry width="50" height="50" relative="1" as="geometry">
            <mxPoint x="1040" y="310" as="sourcePoint" />
            <mxPoint x="979" y="775.96" as="targetPoint" />
            <Array as="points">
              <mxPoint x="1009" y="828" />
            </Array>
          </mxGeometry>
        </mxCell>
        <mxCell id="-wmhV7_I5_4gsShTXuPr-49" value="Soziale Kompetenz S1" style="swimlane;fontStyle=0;childLayout=stackLayout;horizontal=1;startSize=30;horizontalStack=0;resizeParent=1;resizeParentMax=0;resizeLast=0;collapsible=1;marginBottom=0;whiteSpace=wrap;html=1;fillColor=#fff2cc;strokeColor=#d6b656;" parent="1" vertex="1">
          <mxGeometry x="850" y="970" width="300" height="190" as="geometry" />
        </mxCell>
        <mxCell id="-wmhV7_I5_4gsShTXuPr-50" value="Label = &quot;01&quot;" style="text;strokeColor=none;fillColor=none;align=left;verticalAlign=middle;spacingLeft=4;spacingRight=4;overflow=hidden;points=[[0,0.5],[1,0.5]];portConstraint=eastwest;rotatable=0;whiteSpace=wrap;html=1;" parent="-wmhV7_I5_4gsShTXuPr-49" vertex="1">
          <mxGeometry y="30" width="300" height="30" as="geometry" />
        </mxCell>
        <mxCell id="-wmhV7_I5_4gsShTXuPr-51" value="ID = &quot;HH-UF-S-01&quot;" style="text;strokeColor=none;fillColor=none;align=left;verticalAlign=middle;spacingLeft=4;spacingRight=4;overflow=hidden;points=[[0,0.5],[1,0.5]];portConstraint=eastwest;rotatable=0;whiteSpace=wrap;html=1;" parent="-wmhV7_I5_4gsShTXuPr-49" vertex="1">
          <mxGeometry y="60" width="300" height="30" as="geometry" />
        </mxCell>
        <mxCell id="-wmhV7_I5_4gsShTXuPr-54" value="ParentID = &quot;HH-UF-S&quot;" style="text;strokeColor=none;fillColor=none;align=left;verticalAlign=middle;spacingLeft=4;spacingRight=4;overflow=hidden;points=[[0,0.5],[1,0.5]];portConstraint=eastwest;rotatable=0;whiteSpace=wrap;html=1;" parent="-wmhV7_I5_4gsShTXuPr-49" vertex="1">
          <mxGeometry y="90" width="300" height="30" as="geometry" />
        </mxCell>
        <mxCell id="-wmhV7_I5_4gsShTXuPr-52" value="Type = &quot;LO&quot;" style="text;strokeColor=none;fillColor=none;align=left;verticalAlign=middle;spacingLeft=4;spacingRight=4;overflow=hidden;points=[[0,0.5],[1,0.5]];portConstraint=eastwest;rotatable=0;whiteSpace=wrap;html=1;" parent="-wmhV7_I5_4gsShTXuPr-49" vertex="1">
          <mxGeometry y="120" width="300" height="30" as="geometry" />
        </mxCell>
        <mxCell id="-wmhV7_I5_4gsShTXuPr-53" value="Text = &quot;Die Schülerin/der Schüler arbeitet gut mit anderen zusammen, übernimmt Aufgaben und Verantwortung in Gruppen.&quot;" style="text;strokeColor=none;fillColor=none;align=left;verticalAlign=middle;spacingLeft=4;spacingRight=4;overflow=hidden;points=[[0,0.5],[1,0.5]];portConstraint=eastwest;rotatable=0;whiteSpace=wrap;html=1;" parent="-wmhV7_I5_4gsShTXuPr-49" vertex="1">
          <mxGeometry y="150" width="300" height="40" as="geometry" />
        </mxCell>
        <mxCell id="-wmhV7_I5_4gsShTXuPr-55" value="" style="edgeStyle=elbowEdgeStyle;elbow=vertical;endArrow=classic;html=1;rounded=0;entryX=-0.029;entryY=0.108;entryDx=0;entryDy=0;entryPerimeter=0;exitX=0;exitY=0.1;exitDx=0;exitDy=0;exitPerimeter=0;" parent="1" source="-wmhV7_I5_4gsShTXuPr-49" target="-wmhV7_I5_4gsShTXuPr-41" edge="1">
          <mxGeometry width="50" height="50" relative="1" as="geometry">
            <mxPoint x="719" y="750" as="sourcePoint" />
            <mxPoint x="989" y="785.96" as="targetPoint" />
            <Array as="points">
              <mxPoint x="799" y="840" />
            </Array>
          </mxGeometry>
        </mxCell>
        <mxCell id="-wmhV7_I5_4gsShTXuPr-56" value="" style="edgeStyle=elbowEdgeStyle;elbow=vertical;endArrow=classic;html=1;rounded=0;entryX=-0.021;entryY=0.133;entryDx=0;entryDy=0;entryPerimeter=0;" parent="1" target="-wmhV7_I5_4gsShTXuPr-37" edge="1">
          <mxGeometry width="50" height="50" relative="1" as="geometry">
            <mxPoint x="780" y="1020" as="sourcePoint" />
            <mxPoint x="844.94" y="782.96" as="targetPoint" />
            <Array as="points">
              <mxPoint x="799" y="660" />
            </Array>
          </mxGeometry>
        </mxCell>
        <mxCell id="-wmhV7_I5_4gsShTXuPr-57" value="" style="edgeStyle=elbowEdgeStyle;elbow=vertical;endArrow=classic;html=1;rounded=0;entryX=-0.021;entryY=0.133;entryDx=0;entryDy=0;entryPerimeter=0;" parent="1" edge="1">
          <mxGeometry width="50" height="50" relative="1" as="geometry">
            <mxPoint x="780" y="814" as="sourcePoint" />
            <mxPoint x="836.06" y="500" as="targetPoint" />
            <Array as="points">
              <mxPoint x="789" y="500.03999999999996" />
            </Array>
          </mxGeometry>
        </mxCell>
        <mxCell id="-wmhV7_I5_4gsShTXuPr-58" value="" style="edgeStyle=elbowEdgeStyle;elbow=vertical;endArrow=classic;html=1;rounded=0;entryX=0;entryY=0.133;entryDx=0;entryDy=0;entryPerimeter=0;" parent="1" target="-wmhV7_I5_4gsShTXuPr-29" edge="1">
          <mxGeometry width="50" height="50" relative="1" as="geometry">
            <mxPoint x="780" y="680" as="sourcePoint" />
            <mxPoint x="836.06" y="360" as="targetPoint" />
            <Array as="points">
              <mxPoint x="789" y="340" />
            </Array>
          </mxGeometry>
        </mxCell>
        <mxCell id="-wmhV7_I5_4gsShTXuPr-73" value="Studienstufe" style="swimlane;fontStyle=0;childLayout=stackLayout;horizontal=1;startSize=30;horizontalStack=0;resizeParent=1;resizeParentMax=0;resizeLast=0;collapsible=1;marginBottom=0;whiteSpace=wrap;html=1;fillColor=#f5f5f5;fontColor=#333333;strokeColor=#666666;" parent="1" vertex="1">
          <mxGeometry x="100" y="370" width="140" height="150" as="geometry" />
        </mxCell>
        <mxCell id="-wmhV7_I5_4gsShTXuPr-74" value="Label = &quot;Std&quot;" style="text;strokeColor=none;fillColor=none;align=left;verticalAlign=middle;spacingLeft=4;spacingRight=4;overflow=hidden;points=[[0,0.5],[1,0.5]];portConstraint=eastwest;rotatable=0;whiteSpace=wrap;html=1;" parent="-wmhV7_I5_4gsShTXuPr-73" vertex="1">
          <mxGeometry y="30" width="140" height="30" as="geometry" />
        </mxCell>
        <mxCell id="-wmhV7_I5_4gsShTXuPr-75" value="ID = &quot;HH-F-Std&quot;" style="text;strokeColor=none;fillColor=none;align=left;verticalAlign=middle;spacingLeft=4;spacingRight=4;overflow=hidden;points=[[0,0.5],[1,0.5]];portConstraint=eastwest;rotatable=0;whiteSpace=wrap;html=1;" parent="-wmhV7_I5_4gsShTXuPr-73" vertex="1">
          <mxGeometry y="60" width="140" height="30" as="geometry" />
        </mxCell>
        <mxCell id="-wmhV7_I5_4gsShTXuPr-76" value="ParentID = &quot;HH-F&quot;" style="text;strokeColor=none;fillColor=none;align=left;verticalAlign=middle;spacingLeft=4;spacingRight=4;overflow=hidden;points=[[0,0.5],[1,0.5]];portConstraint=eastwest;rotatable=0;whiteSpace=wrap;html=1;" parent="-wmhV7_I5_4gsShTXuPr-73" vertex="1">
          <mxGeometry y="90" width="140" height="30" as="geometry" />
        </mxCell>
        <mxCell id="-wmhV7_I5_4gsShTXuPr-77" value="Type = &quot;Folder&quot;" style="text;strokeColor=none;fillColor=none;align=left;verticalAlign=middle;spacingLeft=4;spacingRight=4;overflow=hidden;points=[[0,0.5],[1,0.5]];portConstraint=eastwest;rotatable=0;whiteSpace=wrap;html=1;" parent="-wmhV7_I5_4gsShTXuPr-73" vertex="1">
          <mxGeometry y="120" width="140" height="30" as="geometry" />
        </mxCell>
        <mxCell id="-wmhV7_I5_4gsShTXuPr-78" value="Sekundarstufe" style="swimlane;fontStyle=0;childLayout=stackLayout;horizontal=1;startSize=30;horizontalStack=0;resizeParent=1;resizeParentMax=0;resizeLast=0;collapsible=1;marginBottom=0;whiteSpace=wrap;html=1;fillColor=#f5f5f5;fontColor=#333333;strokeColor=#666666;" parent="1" vertex="1">
          <mxGeometry x="100" y="560" width="140" height="150" as="geometry" />
        </mxCell>
        <mxCell id="-wmhV7_I5_4gsShTXuPr-79" value="Label = &quot;Sek&quot;" style="text;strokeColor=none;fillColor=none;align=left;verticalAlign=middle;spacingLeft=4;spacingRight=4;overflow=hidden;points=[[0,0.5],[1,0.5]];portConstraint=eastwest;rotatable=0;whiteSpace=wrap;html=1;" parent="-wmhV7_I5_4gsShTXuPr-78" vertex="1">
          <mxGeometry y="30" width="140" height="30" as="geometry" />
        </mxCell>
        <mxCell id="-wmhV7_I5_4gsShTXuPr-80" value="ID = &quot;HH-F-Sek&quot;" style="text;strokeColor=none;fillColor=none;align=left;verticalAlign=middle;spacingLeft=4;spacingRight=4;overflow=hidden;points=[[0,0.5],[1,0.5]];portConstraint=eastwest;rotatable=0;whiteSpace=wrap;html=1;" parent="-wmhV7_I5_4gsShTXuPr-78" vertex="1">
          <mxGeometry y="60" width="140" height="30" as="geometry" />
        </mxCell>
        <mxCell id="-wmhV7_I5_4gsShTXuPr-81" value="ParentID = &quot;HH-F&quot;" style="text;strokeColor=none;fillColor=none;align=left;verticalAlign=middle;spacingLeft=4;spacingRight=4;overflow=hidden;points=[[0,0.5],[1,0.5]];portConstraint=eastwest;rotatable=0;whiteSpace=wrap;html=1;" parent="-wmhV7_I5_4gsShTXuPr-78" vertex="1">
          <mxGeometry y="90" width="140" height="30" as="geometry" />
        </mxCell>
        <mxCell id="-wmhV7_I5_4gsShTXuPr-82" value="Type = &quot;Folder&quot;" style="text;strokeColor=none;fillColor=none;align=left;verticalAlign=middle;spacingLeft=4;spacingRight=4;overflow=hidden;points=[[0,0.5],[1,0.5]];portConstraint=eastwest;rotatable=0;whiteSpace=wrap;html=1;" parent="-wmhV7_I5_4gsShTXuPr-78" vertex="1">
          <mxGeometry y="120" width="140" height="30" as="geometry" />
        </mxCell>
        <mxCell id="-wmhV7_I5_4gsShTXuPr-83" value="" style="edgeStyle=elbowEdgeStyle;elbow=vertical;endArrow=classic;html=1;rounded=0;entryX=0.137;entryY=1.026;entryDx=0;entryDy=0;entryPerimeter=0;exitX=0.01;exitY=0.124;exitDx=0;exitDy=0;exitPerimeter=0;" parent="1" source="-wmhV7_I5_4gsShTXuPr-73" target="-wmhV7_I5_4gsShTXuPr-27" edge="1">
          <mxGeometry width="50" height="50" relative="1" as="geometry">
            <mxPoint x="70" y="410" as="sourcePoint" />
            <mxPoint x="420" y="309.99999999999994" as="targetPoint" />
            <Array as="points">
              <mxPoint x="80" y="389" />
              <mxPoint x="46" y="400" />
            </Array>
          </mxGeometry>
        </mxCell>
        <mxCell id="-wmhV7_I5_4gsShTXuPr-84" value="" style="edgeStyle=elbowEdgeStyle;elbow=vertical;endArrow=classic;html=1;rounded=0;entryX=0.137;entryY=1.055;entryDx=0;entryDy=0;entryPerimeter=0;exitX=-0.015;exitY=0.104;exitDx=0;exitDy=0;exitPerimeter=0;" parent="1" source="-wmhV7_I5_4gsShTXuPr-78" target="-wmhV7_I5_4gsShTXuPr-27" edge="1">
          <mxGeometry width="50" height="50" relative="1" as="geometry">
            <mxPoint x="91.39999999999998" y="398.6" as="sourcePoint" />
            <mxPoint x="55.65999999999997" y="215.14999999999998" as="targetPoint" />
            <Array as="points">
              <mxPoint x="80" y="576" />
            </Array>
          </mxGeometry>
        </mxCell>
        <mxCell id="-wmhV7_I5_4gsShTXuPr-90" value="&amp;lt;Fach&amp;gt;" style="swimlane;fontStyle=0;childLayout=stackLayout;horizontal=1;startSize=30;horizontalStack=0;resizeParent=1;resizeParentMax=0;resizeLast=0;collapsible=1;marginBottom=0;whiteSpace=wrap;html=1;fillColor=#e1d5e7;strokeColor=#9673a6;strokeWidth=3;" parent="1" vertex="1">
          <mxGeometry x="300" y="240" width="140" height="210" as="geometry" />
        </mxCell>
        <mxCell id="-wmhV7_I5_4gsShTXuPr-91" value="Label = &amp;lt;Fachkürzel&amp;gt;" style="text;strokeColor=none;fillColor=none;align=left;verticalAlign=middle;spacingLeft=4;spacingRight=4;overflow=hidden;points=[[0,0.5],[1,0.5]];portConstraint=eastwest;rotatable=0;whiteSpace=wrap;html=1;" parent="-wmhV7_I5_4gsShTXuPr-90" vertex="1">
          <mxGeometry y="30" width="140" height="30" as="geometry" />
        </mxCell>
        <mxCell id="-wmhV7_I5_4gsShTXuPr-92" value="ID = &quot;HH-F-Std-&amp;lt;Fachkürzel&amp;gt;&quot;" style="text;strokeColor=none;fillColor=none;align=left;verticalAlign=middle;spacingLeft=4;spacingRight=4;overflow=hidden;points=[[0,0.5],[1,0.5]];portConstraint=eastwest;rotatable=0;whiteSpace=wrap;html=1;" parent="-wmhV7_I5_4gsShTXuPr-90" vertex="1">
          <mxGeometry y="60" width="140" height="30" as="geometry" />
        </mxCell>
        <mxCell id="-wmhV7_I5_4gsShTXuPr-93" value="ParentID = &quot;HH-F-Std&quot;" style="text;strokeColor=none;fillColor=none;align=left;verticalAlign=middle;spacingLeft=4;spacingRight=4;overflow=hidden;points=[[0,0.5],[1,0.5]];portConstraint=eastwest;rotatable=0;whiteSpace=wrap;html=1;" parent="-wmhV7_I5_4gsShTXuPr-90" vertex="1">
          <mxGeometry y="90" width="140" height="30" as="geometry" />
        </mxCell>
        <mxCell id="-wmhV7_I5_4gsShTXuPr-94" value="Type = &quot;Subject&quot;" style="text;strokeColor=none;fillColor=none;align=left;verticalAlign=middle;spacingLeft=4;spacingRight=4;overflow=hidden;points=[[0,0.5],[1,0.5]];portConstraint=eastwest;rotatable=0;whiteSpace=wrap;html=1;" parent="-wmhV7_I5_4gsShTXuPr-90" vertex="1">
          <mxGeometry y="120" width="140" height="30" as="geometry" />
        </mxCell>
        <mxCell id="-wmhV7_I5_4gsShTXuPr-184" value="Resposible = &quot;NN&quot;" style="text;strokeColor=none;fillColor=none;align=left;verticalAlign=middle;spacingLeft=4;spacingRight=4;overflow=hidden;points=[[0,0.5],[1,0.5]];portConstraint=eastwest;rotatable=0;whiteSpace=wrap;html=1;" parent="-wmhV7_I5_4gsShTXuPr-90" vertex="1">
          <mxGeometry y="150" width="140" height="30" as="geometry" />
        </mxCell>
        <mxCell id="-wmhV7_I5_4gsShTXuPr-185" value="Status = &quot;Offen&quot;" style="text;strokeColor=none;fillColor=none;align=left;verticalAlign=middle;spacingLeft=4;spacingRight=4;overflow=hidden;points=[[0,0.5],[1,0.5]];portConstraint=eastwest;rotatable=0;whiteSpace=wrap;html=1;" parent="-wmhV7_I5_4gsShTXuPr-90" vertex="1">
          <mxGeometry y="180" width="140" height="30" as="geometry" />
        </mxCell>
        <mxCell id="-wmhV7_I5_4gsShTXuPr-102" value="" style="edgeStyle=elbowEdgeStyle;elbow=horizontal;endArrow=classic;html=1;rounded=0;exitX=-0.009;exitY=0.112;exitDx=0;exitDy=0;exitPerimeter=0;entryX=1;entryY=0.5;entryDx=0;entryDy=0;" parent="1" source="-wmhV7_I5_4gsShTXuPr-90" target="-wmhV7_I5_4gsShTXuPr-75" edge="1">
          <mxGeometry width="50" height="50" relative="1" as="geometry">
            <mxPoint x="330.41999999999985" y="710.0000000000001" as="sourcePoint" />
            <mxPoint x="270" y="420" as="targetPoint" />
            <Array as="points">
              <mxPoint x="270" y="440" />
              <mxPoint x="280" y="445" />
              <mxPoint x="300" y="446.4" />
              <mxPoint x="310" y="451.4" />
              <mxPoint x="310" y="451.4" />
              <mxPoint x="300" y="446.4" />
              <mxPoint x="300" y="711.4" />
              <mxPoint x="312.1" y="711.4" />
            </Array>
          </mxGeometry>
        </mxCell>
        <mxCell id="-wmhV7_I5_4gsShTXuPr-105" value="" style="edgeStyle=elbowEdgeStyle;elbow=horizontal;endArrow=classic;html=1;rounded=0;exitX=-0.009;exitY=0.092;exitDx=0;exitDy=0;exitPerimeter=0;entryX=1;entryY=0.5;entryDx=0;entryDy=0;" parent="1" source="-wmhV7_I5_4gsShTXuPr-97" target="-wmhV7_I5_4gsShTXuPr-75" edge="1">
          <mxGeometry width="50" height="50" relative="1" as="geometry">
            <mxPoint x="338.7399999999999" y="726.8" as="sourcePoint" />
            <mxPoint x="259.9999999999999" y="465" as="targetPoint" />
            <Array as="points">
              <mxPoint x="280" y="670" />
              <mxPoint x="300" y="465" />
              <mxPoint x="320" y="466.4" />
              <mxPoint x="330" y="471.4" />
              <mxPoint x="330" y="471.4" />
              <mxPoint x="320" y="466.4" />
              <mxPoint x="320" y="731.4" />
              <mxPoint x="332.1" y="731.4" />
            </Array>
          </mxGeometry>
        </mxCell>
        <mxCell id="-wmhV7_I5_4gsShTXuPr-106" value="Prozessbezogene Kompetenzen" style="swimlane;fontStyle=0;childLayout=stackLayout;horizontal=1;startSize=30;horizontalStack=0;resizeParent=1;resizeParentMax=0;resizeLast=0;collapsible=1;marginBottom=0;whiteSpace=wrap;html=1;fillColor=#dae8fc;strokeColor=#6c8ebf;" parent="1" vertex="1">
          <mxGeometry x="80" y="1138.35" width="160" height="150" as="geometry" />
        </mxCell>
        <mxCell id="-wmhV7_I5_4gsShTXuPr-107" value="Label = &quot;P&quot;" style="text;strokeColor=none;fillColor=none;align=left;verticalAlign=middle;spacingLeft=4;spacingRight=4;overflow=hidden;points=[[0,0.5],[1,0.5]];portConstraint=eastwest;rotatable=0;whiteSpace=wrap;html=1;" parent="-wmhV7_I5_4gsShTXuPr-106" vertex="1">
          <mxGeometry y="30" width="160" height="30" as="geometry" />
        </mxCell>
        <mxCell id="-wmhV7_I5_4gsShTXuPr-108" value="ID = &quot;HH-F-Inf-P&quot;" style="text;strokeColor=none;fillColor=none;align=left;verticalAlign=middle;spacingLeft=4;spacingRight=4;overflow=hidden;points=[[0,0.5],[1,0.5]];portConstraint=eastwest;rotatable=0;whiteSpace=wrap;html=1;" parent="-wmhV7_I5_4gsShTXuPr-106" vertex="1">
          <mxGeometry y="60" width="160" height="30" as="geometry" />
        </mxCell>
        <mxCell id="-wmhV7_I5_4gsShTXuPr-109" value="ParentID = &quot;HH-F-Std-Inf&quot;" style="text;strokeColor=none;fillColor=none;align=left;verticalAlign=middle;spacingLeft=4;spacingRight=4;overflow=hidden;points=[[0,0.5],[1,0.5]];portConstraint=eastwest;rotatable=0;whiteSpace=wrap;html=1;" parent="-wmhV7_I5_4gsShTXuPr-106" vertex="1">
          <mxGeometry y="90" width="160" height="30" as="geometry" />
        </mxCell>
        <mxCell id="-wmhV7_I5_4gsShTXuPr-110" value="Type = &quot;Category&quot;" style="text;strokeColor=none;fillColor=none;align=left;verticalAlign=middle;spacingLeft=4;spacingRight=4;overflow=hidden;points=[[0,0.5],[1,0.5]];portConstraint=eastwest;rotatable=0;whiteSpace=wrap;html=1;" parent="-wmhV7_I5_4gsShTXuPr-106" vertex="1">
          <mxGeometry y="120" width="160" height="30" as="geometry" />
        </mxCell>
        <mxCell id="-wmhV7_I5_4gsShTXuPr-111" value="Themenfeld 1 - Softwareentwicklung" style="swimlane;fontStyle=0;childLayout=stackLayout;horizontal=1;startSize=30;horizontalStack=0;resizeParent=1;resizeParentMax=0;resizeLast=0;collapsible=1;marginBottom=0;whiteSpace=wrap;html=1;fillColor=#dae8fc;strokeColor=#6c8ebf;" parent="1" vertex="1">
          <mxGeometry x="470" y="1138.35" width="160" height="150" as="geometry" />
        </mxCell>
        <mxCell id="-wmhV7_I5_4gsShTXuPr-112" value="Label = &quot;T010&quot;" style="text;strokeColor=none;fillColor=none;align=left;verticalAlign=middle;spacingLeft=4;spacingRight=4;overflow=hidden;points=[[0,0.5],[1,0.5]];portConstraint=eastwest;rotatable=0;whiteSpace=wrap;html=1;" parent="-wmhV7_I5_4gsShTXuPr-111" vertex="1">
          <mxGeometry y="30" width="160" height="30" as="geometry" />
        </mxCell>
        <mxCell id="-wmhV7_I5_4gsShTXuPr-113" value="ID = &quot;HH-F-Inf-T010&quot;" style="text;strokeColor=none;fillColor=none;align=left;verticalAlign=middle;spacingLeft=4;spacingRight=4;overflow=hidden;points=[[0,0.5],[1,0.5]];portConstraint=eastwest;rotatable=0;whiteSpace=wrap;html=1;" parent="-wmhV7_I5_4gsShTXuPr-111" vertex="1">
          <mxGeometry y="60" width="160" height="30" as="geometry" />
        </mxCell>
        <mxCell id="-wmhV7_I5_4gsShTXuPr-114" value="ParentID = &quot;HH-F-Std-Inf&quot;" style="text;strokeColor=none;fillColor=none;align=left;verticalAlign=middle;spacingLeft=4;spacingRight=4;overflow=hidden;points=[[0,0.5],[1,0.5]];portConstraint=eastwest;rotatable=0;whiteSpace=wrap;html=1;" parent="-wmhV7_I5_4gsShTXuPr-111" vertex="1">
          <mxGeometry y="90" width="160" height="30" as="geometry" />
        </mxCell>
        <mxCell id="-wmhV7_I5_4gsShTXuPr-115" value="Type = &quot;Category&quot;" style="text;strokeColor=none;fillColor=none;align=left;verticalAlign=middle;spacingLeft=4;spacingRight=4;overflow=hidden;points=[[0,0.5],[1,0.5]];portConstraint=eastwest;rotatable=0;whiteSpace=wrap;html=1;" parent="-wmhV7_I5_4gsShTXuPr-111" vertex="1">
          <mxGeometry y="120" width="160" height="30" as="geometry" />
        </mxCell>
        <mxCell id="-wmhV7_I5_4gsShTXuPr-116" value="" style="edgeStyle=elbowEdgeStyle;elbow=horizontal;endArrow=classic;html=1;rounded=0;exitX=1.017;exitY=0.092;exitDx=0;exitDy=0;exitPerimeter=0;entryX=0.482;entryY=1.07;entryDx=0;entryDy=0;entryPerimeter=0;" parent="1" source="-wmhV7_I5_4gsShTXuPr-106" edge="1">
          <mxGeometry width="50" height="50" relative="1" as="geometry">
            <mxPoint x="309.9999999999999" y="1467.15" as="sourcePoint" />
            <mxPoint x="397.47999999999956" y="1120.4499999999998" as="targetPoint" />
            <Array as="points">
              <mxPoint x="397" y="1118.35" />
              <mxPoint x="291.26" y="1038.35" />
              <mxPoint x="311.26" y="1039.75" />
              <mxPoint x="321.26" y="1044.75" />
              <mxPoint x="321.26" y="1044.75" />
              <mxPoint x="311.26" y="1039.75" />
              <mxPoint x="311.26" y="1304.75" />
              <mxPoint x="323.36" y="1304.75" />
            </Array>
          </mxGeometry>
        </mxCell>
        <mxCell id="-wmhV7_I5_4gsShTXuPr-117" value="" style="edgeStyle=elbowEdgeStyle;elbow=horizontal;endArrow=classic;html=1;rounded=0;exitX=-0.002;exitY=0.121;exitDx=0;exitDy=0;exitPerimeter=0;entryX=0.475;entryY=1.099;entryDx=0;entryDy=0;entryPerimeter=0;" parent="1" source="-wmhV7_I5_4gsShTXuPr-111" edge="1">
          <mxGeometry width="50" height="50" relative="1" as="geometry">
            <mxPoint x="252.72000000000003" y="1162.15" as="sourcePoint" />
            <mxPoint x="396.5" y="1121.3199999999997" as="targetPoint" />
            <Array as="points">
              <mxPoint x="396" y="1128.35" />
              <mxPoint x="301.26" y="1048.35" />
              <mxPoint x="321.26" y="1049.75" />
              <mxPoint x="331.26" y="1054.75" />
              <mxPoint x="331.26" y="1054.75" />
              <mxPoint x="321.26" y="1049.75" />
              <mxPoint x="321.26" y="1314.75" />
              <mxPoint x="333.36" y="1314.75" />
            </Array>
          </mxGeometry>
        </mxCell>
        <mxCell id="-wmhV7_I5_4gsShTXuPr-118" value="Themenfeld 2.1 - xxx" style="swimlane;fontStyle=0;childLayout=stackLayout;horizontal=1;startSize=30;horizontalStack=0;resizeParent=1;resizeParentMax=0;resizeLast=0;collapsible=1;marginBottom=0;whiteSpace=wrap;html=1;fillColor=#dae8fc;strokeColor=#6c8ebf;" parent="1" vertex="1">
          <mxGeometry x="470" y="1308.35" width="160" height="150" as="geometry" />
        </mxCell>
        <mxCell id="-wmhV7_I5_4gsShTXuPr-119" value="Label = &quot;T021&quot;" style="text;strokeColor=none;fillColor=none;align=left;verticalAlign=middle;spacingLeft=4;spacingRight=4;overflow=hidden;points=[[0,0.5],[1,0.5]];portConstraint=eastwest;rotatable=0;whiteSpace=wrap;html=1;" parent="-wmhV7_I5_4gsShTXuPr-118" vertex="1">
          <mxGeometry y="30" width="160" height="30" as="geometry" />
        </mxCell>
        <mxCell id="-wmhV7_I5_4gsShTXuPr-120" value="ID = &quot;HH-F-Inf-T021&quot;" style="text;strokeColor=none;fillColor=none;align=left;verticalAlign=middle;spacingLeft=4;spacingRight=4;overflow=hidden;points=[[0,0.5],[1,0.5]];portConstraint=eastwest;rotatable=0;whiteSpace=wrap;html=1;" parent="-wmhV7_I5_4gsShTXuPr-118" vertex="1">
          <mxGeometry y="60" width="160" height="30" as="geometry" />
        </mxCell>
        <mxCell id="-wmhV7_I5_4gsShTXuPr-121" value="ParentID = &quot;HH-F-Std-Inf&quot;" style="text;strokeColor=none;fillColor=none;align=left;verticalAlign=middle;spacingLeft=4;spacingRight=4;overflow=hidden;points=[[0,0.5],[1,0.5]];portConstraint=eastwest;rotatable=0;whiteSpace=wrap;html=1;" parent="-wmhV7_I5_4gsShTXuPr-118" vertex="1">
          <mxGeometry y="90" width="160" height="30" as="geometry" />
        </mxCell>
        <mxCell id="-wmhV7_I5_4gsShTXuPr-122" value="Type = &quot;Category&quot;" style="text;strokeColor=none;fillColor=none;align=left;verticalAlign=middle;spacingLeft=4;spacingRight=4;overflow=hidden;points=[[0,0.5],[1,0.5]];portConstraint=eastwest;rotatable=0;whiteSpace=wrap;html=1;" parent="-wmhV7_I5_4gsShTXuPr-118" vertex="1">
          <mxGeometry y="120" width="160" height="30" as="geometry" />
        </mxCell>
        <mxCell id="-wmhV7_I5_4gsShTXuPr-123" value="Themenfeld 2.2 - xxx" style="swimlane;fontStyle=0;childLayout=stackLayout;horizontal=1;startSize=30;horizontalStack=0;resizeParent=1;resizeParentMax=0;resizeLast=0;collapsible=1;marginBottom=0;whiteSpace=wrap;html=1;fillColor=#dae8fc;strokeColor=#6c8ebf;" parent="1" vertex="1">
          <mxGeometry x="470" y="1478.35" width="160" height="150" as="geometry" />
        </mxCell>
        <mxCell id="-wmhV7_I5_4gsShTXuPr-124" value="Label = &quot;T022&quot;" style="text;strokeColor=none;fillColor=none;align=left;verticalAlign=middle;spacingLeft=4;spacingRight=4;overflow=hidden;points=[[0,0.5],[1,0.5]];portConstraint=eastwest;rotatable=0;whiteSpace=wrap;html=1;" parent="-wmhV7_I5_4gsShTXuPr-123" vertex="1">
          <mxGeometry y="30" width="160" height="30" as="geometry" />
        </mxCell>
        <mxCell id="-wmhV7_I5_4gsShTXuPr-125" value="ID = &quot;HH-F-Inf-T022&quot;" style="text;strokeColor=none;fillColor=none;align=left;verticalAlign=middle;spacingLeft=4;spacingRight=4;overflow=hidden;points=[[0,0.5],[1,0.5]];portConstraint=eastwest;rotatable=0;whiteSpace=wrap;html=1;" parent="-wmhV7_I5_4gsShTXuPr-123" vertex="1">
          <mxGeometry y="60" width="160" height="30" as="geometry" />
        </mxCell>
        <mxCell id="-wmhV7_I5_4gsShTXuPr-126" value="ParentID = &quot;HH-F-Std-Inf&quot;" style="text;strokeColor=none;fillColor=none;align=left;verticalAlign=middle;spacingLeft=4;spacingRight=4;overflow=hidden;points=[[0,0.5],[1,0.5]];portConstraint=eastwest;rotatable=0;whiteSpace=wrap;html=1;" parent="-wmhV7_I5_4gsShTXuPr-123" vertex="1">
          <mxGeometry y="90" width="160" height="30" as="geometry" />
        </mxCell>
        <mxCell id="-wmhV7_I5_4gsShTXuPr-127" value="Type = &quot;Category&quot;" style="text;strokeColor=none;fillColor=none;align=left;verticalAlign=middle;spacingLeft=4;spacingRight=4;overflow=hidden;points=[[0,0.5],[1,0.5]];portConstraint=eastwest;rotatable=0;whiteSpace=wrap;html=1;" parent="-wmhV7_I5_4gsShTXuPr-123" vertex="1">
          <mxGeometry y="120" width="160" height="30" as="geometry" />
        </mxCell>
        <mxCell id="-wmhV7_I5_4gsShTXuPr-128" value="..." style="text;html=1;strokeColor=none;fillColor=none;align=center;verticalAlign=middle;whiteSpace=wrap;rounded=0;glass=0;fillStyle=solid;" parent="1" vertex="1">
          <mxGeometry x="510" y="1648.35" width="60" height="30" as="geometry" />
        </mxCell>
        <mxCell id="-wmhV7_I5_4gsShTXuPr-129" value="" style="edgeStyle=elbowEdgeStyle;elbow=horizontal;endArrow=classic;html=1;rounded=0;exitX=-0.002;exitY=0.11;exitDx=0;exitDy=0;exitPerimeter=0;entryX=0.753;entryY=1.099;entryDx=0;entryDy=0;entryPerimeter=0;" parent="1" source="-wmhV7_I5_4gsShTXuPr-118" target="-wmhV7_I5_4gsShTXuPr-183" edge="1">
          <mxGeometry width="50" height="50" relative="1" as="geometry">
            <mxPoint x="470.00000000000006" y="1323.5300000000002" as="sourcePoint" />
            <mxPoint x="397.47999999999956" y="1119.9999999999995" as="targetPoint" />
            <Array as="points">
              <mxPoint x="396.32" y="1295.38" />
              <mxPoint x="301.58" y="1215.38" />
              <mxPoint x="321.58" y="1216.7800000000002" />
              <mxPoint x="331.58" y="1221.7800000000002" />
              <mxPoint x="331.58" y="1221.7800000000002" />
              <mxPoint x="321.58" y="1216.7800000000002" />
              <mxPoint x="321.58" y="1481.7800000000002" />
              <mxPoint x="333.68" y="1481.7800000000002" />
            </Array>
          </mxGeometry>
        </mxCell>
        <mxCell id="-wmhV7_I5_4gsShTXuPr-130" value="" style="edgeStyle=elbowEdgeStyle;elbow=horizontal;endArrow=classic;html=1;rounded=0;exitX=-0.013;exitY=0.089;exitDx=0;exitDy=0;exitPerimeter=0;" parent="1" source="-wmhV7_I5_4gsShTXuPr-123" edge="1">
          <mxGeometry width="50" height="50" relative="1" as="geometry">
            <mxPoint x="479.68000000000006" y="559.1100000000001" as="sourcePoint" />
            <mxPoint x="389" y="1130" as="targetPoint" />
            <Array as="points">
              <mxPoint x="390" y="670.96" />
              <mxPoint x="311.26" y="450.96000000000004" />
              <mxPoint x="331.26" y="452.3599999999999" />
              <mxPoint x="341.26" y="457.3599999999999" />
              <mxPoint x="341.26" y="457.3599999999999" />
              <mxPoint x="331.26" y="452.3599999999999" />
              <mxPoint x="331.26" y="717.3600000000001" />
              <mxPoint x="343.36" y="717.3600000000001" />
            </Array>
          </mxGeometry>
        </mxCell>
        <mxCell id="-wmhV7_I5_4gsShTXuPr-132" value="Visualisierung mit Klassendiagrammen&amp;nbsp;" style="swimlane;fontStyle=0;childLayout=stackLayout;horizontal=1;startSize=30;horizontalStack=0;resizeParent=1;resizeParentMax=0;resizeLast=0;collapsible=1;marginBottom=0;whiteSpace=wrap;html=1;fillColor=#dae8fc;strokeColor=#6c8ebf;" parent="1" vertex="1">
          <mxGeometry x="680" y="1298.35" width="180" height="150" as="geometry" />
        </mxCell>
        <mxCell id="-wmhV7_I5_4gsShTXuPr-133" value="Label = &quot;01&quot;" style="text;strokeColor=none;fillColor=none;align=left;verticalAlign=middle;spacingLeft=4;spacingRight=4;overflow=hidden;points=[[0,0.5],[1,0.5]];portConstraint=eastwest;rotatable=0;whiteSpace=wrap;html=1;" parent="-wmhV7_I5_4gsShTXuPr-132" vertex="1">
          <mxGeometry y="30" width="180" height="30" as="geometry" />
        </mxCell>
        <mxCell id="-wmhV7_I5_4gsShTXuPr-134" value="ID = &quot;HH-F-Inf-T010-01&quot;" style="text;strokeColor=none;fillColor=none;align=left;verticalAlign=middle;spacingLeft=4;spacingRight=4;overflow=hidden;points=[[0,0.5],[1,0.5]];portConstraint=eastwest;rotatable=0;whiteSpace=wrap;html=1;" parent="-wmhV7_I5_4gsShTXuPr-132" vertex="1">
          <mxGeometry y="60" width="180" height="30" as="geometry" />
        </mxCell>
        <mxCell id="-wmhV7_I5_4gsShTXuPr-135" value="ParentID = &quot;HH-F-Std-Inf-T010&quot;" style="text;strokeColor=none;fillColor=none;align=left;verticalAlign=middle;spacingLeft=4;spacingRight=4;overflow=hidden;points=[[0,0.5],[1,0.5]];portConstraint=eastwest;rotatable=0;whiteSpace=wrap;html=1;" parent="-wmhV7_I5_4gsShTXuPr-132" vertex="1">
          <mxGeometry y="90" width="180" height="30" as="geometry" />
        </mxCell>
        <mxCell id="-wmhV7_I5_4gsShTXuPr-136" value="Type = &quot;Category&quot;" style="text;strokeColor=none;fillColor=none;align=left;verticalAlign=middle;spacingLeft=4;spacingRight=4;overflow=hidden;points=[[0,0.5],[1,0.5]];portConstraint=eastwest;rotatable=0;whiteSpace=wrap;html=1;" parent="-wmhV7_I5_4gsShTXuPr-132" vertex="1">
          <mxGeometry y="120" width="180" height="30" as="geometry" />
        </mxCell>
        <mxCell id="-wmhV7_I5_4gsShTXuPr-137" value="" style="edgeStyle=elbowEdgeStyle;elbow=horizontal;endArrow=classic;html=1;rounded=0;exitX=-0.005;exitY=0.107;exitDx=0;exitDy=0;exitPerimeter=0;entryX=1;entryY=0.5;entryDx=0;entryDy=0;" parent="1" source="-wmhV7_I5_4gsShTXuPr-132" target="-wmhV7_I5_4gsShTXuPr-115" edge="1">
          <mxGeometry width="50" height="50" relative="1" as="geometry">
            <mxPoint x="479.68000000000006" y="1334.85" as="sourcePoint" />
            <mxPoint x="407.48" y="1100" as="targetPoint" />
            <Array as="points">
              <mxPoint x="660" y="1298.35" />
              <mxPoint x="311.58" y="1225.38" />
              <mxPoint x="331.58" y="1226.7800000000002" />
              <mxPoint x="341.58" y="1231.7800000000002" />
              <mxPoint x="341.58" y="1231.7800000000002" />
              <mxPoint x="331.58" y="1226.7800000000002" />
              <mxPoint x="331.58" y="1491.7800000000002" />
              <mxPoint x="343.68" y="1491.7800000000002" />
            </Array>
          </mxGeometry>
        </mxCell>
        <mxCell id="-wmhV7_I5_4gsShTXuPr-138" value="..." style="text;html=1;strokeColor=none;fillColor=none;align=center;verticalAlign=middle;whiteSpace=wrap;rounded=0;glass=0;fillStyle=solid;" parent="1" vertex="1">
          <mxGeometry x="730" y="1638.35" width="60" height="30" as="geometry" />
        </mxCell>
        <mxCell id="-wmhV7_I5_4gsShTXuPr-139" value="Beziehungen zwischen Klassen" style="swimlane;fontStyle=0;childLayout=stackLayout;horizontal=1;startSize=30;horizontalStack=0;resizeParent=1;resizeParentMax=0;resizeLast=0;collapsible=1;marginBottom=0;whiteSpace=wrap;html=1;fillColor=#dae8fc;strokeColor=#6c8ebf;" parent="1" vertex="1">
          <mxGeometry x="680" y="1478.35" width="180" height="150" as="geometry" />
        </mxCell>
        <mxCell id="-wmhV7_I5_4gsShTXuPr-140" value="Label = &quot;02&quot;" style="text;strokeColor=none;fillColor=none;align=left;verticalAlign=middle;spacingLeft=4;spacingRight=4;overflow=hidden;points=[[0,0.5],[1,0.5]];portConstraint=eastwest;rotatable=0;whiteSpace=wrap;html=1;" parent="-wmhV7_I5_4gsShTXuPr-139" vertex="1">
          <mxGeometry y="30" width="180" height="30" as="geometry" />
        </mxCell>
        <mxCell id="-wmhV7_I5_4gsShTXuPr-141" value="ID = &quot;HH-F-Inf-T010-02&quot;" style="text;strokeColor=none;fillColor=none;align=left;verticalAlign=middle;spacingLeft=4;spacingRight=4;overflow=hidden;points=[[0,0.5],[1,0.5]];portConstraint=eastwest;rotatable=0;whiteSpace=wrap;html=1;" parent="-wmhV7_I5_4gsShTXuPr-139" vertex="1">
          <mxGeometry y="60" width="180" height="30" as="geometry" />
        </mxCell>
        <mxCell id="-wmhV7_I5_4gsShTXuPr-142" value="ParentID = &quot;HH-F-Std-Inf-T010&quot;" style="text;strokeColor=none;fillColor=none;align=left;verticalAlign=middle;spacingLeft=4;spacingRight=4;overflow=hidden;points=[[0,0.5],[1,0.5]];portConstraint=eastwest;rotatable=0;whiteSpace=wrap;html=1;" parent="-wmhV7_I5_4gsShTXuPr-139" vertex="1">
          <mxGeometry y="90" width="180" height="30" as="geometry" />
        </mxCell>
        <mxCell id="-wmhV7_I5_4gsShTXuPr-143" value="Type = &quot;Category&quot;" style="text;strokeColor=none;fillColor=none;align=left;verticalAlign=middle;spacingLeft=4;spacingRight=4;overflow=hidden;points=[[0,0.5],[1,0.5]];portConstraint=eastwest;rotatable=0;whiteSpace=wrap;html=1;" parent="-wmhV7_I5_4gsShTXuPr-139" vertex="1">
          <mxGeometry y="120" width="180" height="30" as="geometry" />
        </mxCell>
        <mxCell id="-wmhV7_I5_4gsShTXuPr-144" value="" style="edgeStyle=elbowEdgeStyle;elbow=horizontal;endArrow=classic;html=1;rounded=0;entryX=1;entryY=0.5;entryDx=0;entryDy=0;exitX=-0.009;exitY=0.101;exitDx=0;exitDy=0;exitPerimeter=0;" parent="1" source="-wmhV7_I5_4gsShTXuPr-139" target="-wmhV7_I5_4gsShTXuPr-115" edge="1">
          <mxGeometry width="50" height="50" relative="1" as="geometry">
            <mxPoint x="689.0999999999999" y="1324.4" as="sourcePoint" />
            <mxPoint x="640" y="1283.35" as="targetPoint" />
            <Array as="points">
              <mxPoint x="660" y="1388.35" />
              <mxPoint x="321.58" y="1235.38" />
              <mxPoint x="341.58" y="1236.7800000000002" />
              <mxPoint x="351.58" y="1241.7800000000002" />
              <mxPoint x="351.58" y="1241.7800000000002" />
              <mxPoint x="341.58" y="1236.7800000000002" />
              <mxPoint x="341.58" y="1501.7800000000002" />
              <mxPoint x="353.68" y="1501.7800000000002" />
            </Array>
          </mxGeometry>
        </mxCell>
        <mxCell id="-wmhV7_I5_4gsShTXuPr-145" value="Klassendiagramme" style="swimlane;fontStyle=0;childLayout=stackLayout;horizontal=1;startSize=30;horizontalStack=0;resizeParent=1;resizeParentMax=0;resizeLast=0;collapsible=1;marginBottom=0;whiteSpace=wrap;html=1;fillColor=#fff2cc;strokeColor=#d6b656;" parent="1" vertex="1">
          <mxGeometry x="910" y="1318.35" width="200" height="240" as="geometry" />
        </mxCell>
        <mxCell id="-wmhV7_I5_4gsShTXuPr-146" value="Label = &quot;01&quot;" style="text;strokeColor=none;fillColor=none;align=left;verticalAlign=middle;spacingLeft=4;spacingRight=4;overflow=hidden;points=[[0,0.5],[1,0.5]];portConstraint=eastwest;rotatable=0;whiteSpace=wrap;html=1;" parent="-wmhV7_I5_4gsShTXuPr-145" vertex="1">
          <mxGeometry y="30" width="200" height="30" as="geometry" />
        </mxCell>
        <mxCell id="-wmhV7_I5_4gsShTXuPr-147" value="ID = &quot;HH-F-Inf-T010-01-01&quot;" style="text;strokeColor=none;fillColor=none;align=left;verticalAlign=middle;spacingLeft=4;spacingRight=4;overflow=hidden;points=[[0,0.5],[1,0.5]];portConstraint=eastwest;rotatable=0;whiteSpace=wrap;html=1;" parent="-wmhV7_I5_4gsShTXuPr-145" vertex="1">
          <mxGeometry y="60" width="200" height="30" as="geometry" />
        </mxCell>
        <mxCell id="-wmhV7_I5_4gsShTXuPr-148" value="ParentID = &quot;HH-F-Std-Inf-T010-01&quot;" style="text;strokeColor=none;fillColor=none;align=left;verticalAlign=middle;spacingLeft=4;spacingRight=4;overflow=hidden;points=[[0,0.5],[1,0.5]];portConstraint=eastwest;rotatable=0;whiteSpace=wrap;html=1;" parent="-wmhV7_I5_4gsShTXuPr-145" vertex="1">
          <mxGeometry y="90" width="200" height="30" as="geometry" />
        </mxCell>
        <mxCell id="-wmhV7_I5_4gsShTXuPr-149" value="Type = &quot;LO&quot;" style="text;strokeColor=none;fillColor=none;align=left;verticalAlign=middle;spacingLeft=4;spacingRight=4;overflow=hidden;points=[[0,0.5],[1,0.5]];portConstraint=eastwest;rotatable=0;whiteSpace=wrap;html=1;" parent="-wmhV7_I5_4gsShTXuPr-145" vertex="1">
          <mxGeometry y="120" width="200" height="30" as="geometry" />
        </mxCell>
        <mxCell id="-wmhV7_I5_4gsShTXuPr-151" value="Description = &quot;Bezeichnung von Klassenname und im Kontext wesentlicher Attribute/Methoden inkl. Parameter und Sichtbarkeit.Beziehungen zwischen Klassen&quot;" style="text;strokeColor=none;fillColor=none;align=left;verticalAlign=middle;spacingLeft=4;spacingRight=4;overflow=hidden;points=[[0,0.5],[1,0.5]];portConstraint=eastwest;rotatable=0;whiteSpace=wrap;html=1;" parent="-wmhV7_I5_4gsShTXuPr-145" vertex="1">
          <mxGeometry y="150" width="200" height="90" as="geometry" />
        </mxCell>
        <mxCell id="-wmhV7_I5_4gsShTXuPr-150" value="..." style="text;html=1;strokeColor=none;fillColor=none;align=center;verticalAlign=middle;whiteSpace=wrap;rounded=0;glass=0;fillStyle=solid;" parent="1" vertex="1">
          <mxGeometry x="980" y="1568.35" width="60" height="30" as="geometry" />
        </mxCell>
        <mxCell id="-wmhV7_I5_4gsShTXuPr-152" value="" style="edgeStyle=elbowEdgeStyle;elbow=horizontal;endArrow=classic;html=1;rounded=0;entryX=1.01;entryY=0.101;entryDx=0;entryDy=0;exitX=0.002;exitY=0.078;exitDx=0;exitDy=0;exitPerimeter=0;entryPerimeter=0;" parent="1" source="-wmhV7_I5_4gsShTXuPr-145" target="-wmhV7_I5_4gsShTXuPr-132" edge="1">
          <mxGeometry width="50" height="50" relative="1" as="geometry">
            <mxPoint x="688.3799999999999" y="1503.5" as="sourcePoint" />
            <mxPoint x="640" y="1283.35" as="targetPoint" />
            <Array as="points">
              <mxPoint x="890" y="1328.35" />
              <mxPoint x="331.58" y="1245.38" />
              <mxPoint x="351.58" y="1246.7800000000002" />
              <mxPoint x="361.58" y="1251.7800000000002" />
              <mxPoint x="361.58" y="1251.7800000000002" />
              <mxPoint x="351.58" y="1246.7800000000002" />
              <mxPoint x="351.58" y="1511.7800000000002" />
              <mxPoint x="363.68" y="1511.7800000000002" />
            </Array>
          </mxGeometry>
        </mxCell>
        <mxCell id="-wmhV7_I5_4gsShTXuPr-153" value="Darstellen und interpretieren P3" style="swimlane;fontStyle=0;childLayout=stackLayout;horizontal=1;startSize=30;horizontalStack=0;resizeParent=1;resizeParentMax=0;resizeLast=0;collapsible=1;marginBottom=0;whiteSpace=wrap;html=1;fillColor=#dae8fc;strokeColor=#6c8ebf;" parent="1" vertex="1">
          <mxGeometry x="160" y="1338.35" width="180" height="150" as="geometry" />
        </mxCell>
        <mxCell id="-wmhV7_I5_4gsShTXuPr-154" value="Label = &quot;03&quot;" style="text;strokeColor=none;fillColor=none;align=left;verticalAlign=middle;spacingLeft=4;spacingRight=4;overflow=hidden;points=[[0,0.5],[1,0.5]];portConstraint=eastwest;rotatable=0;whiteSpace=wrap;html=1;" parent="-wmhV7_I5_4gsShTXuPr-153" vertex="1">
          <mxGeometry y="30" width="180" height="30" as="geometry" />
        </mxCell>
        <mxCell id="-wmhV7_I5_4gsShTXuPr-155" value="ID = &quot;HH-F-Inf-P-03&quot;" style="text;strokeColor=none;fillColor=none;align=left;verticalAlign=middle;spacingLeft=4;spacingRight=4;overflow=hidden;points=[[0,0.5],[1,0.5]];portConstraint=eastwest;rotatable=0;whiteSpace=wrap;html=1;" parent="-wmhV7_I5_4gsShTXuPr-153" vertex="1">
          <mxGeometry y="60" width="180" height="30" as="geometry" />
        </mxCell>
        <mxCell id="-wmhV7_I5_4gsShTXuPr-156" value="ParentID = &quot;HH-F-Std-Inf-P&quot;" style="text;strokeColor=none;fillColor=none;align=left;verticalAlign=middle;spacingLeft=4;spacingRight=4;overflow=hidden;points=[[0,0.5],[1,0.5]];portConstraint=eastwest;rotatable=0;whiteSpace=wrap;html=1;" parent="-wmhV7_I5_4gsShTXuPr-153" vertex="1">
          <mxGeometry y="90" width="180" height="30" as="geometry" />
        </mxCell>
        <mxCell id="-wmhV7_I5_4gsShTXuPr-157" value="Type = &quot;Category&quot;" style="text;strokeColor=none;fillColor=none;align=left;verticalAlign=middle;spacingLeft=4;spacingRight=4;overflow=hidden;points=[[0,0.5],[1,0.5]];portConstraint=eastwest;rotatable=0;whiteSpace=wrap;html=1;" parent="-wmhV7_I5_4gsShTXuPr-153" vertex="1">
          <mxGeometry y="120" width="180" height="30" as="geometry" />
        </mxCell>
        <mxCell id="-wmhV7_I5_4gsShTXuPr-158" value="..." style="text;html=1;strokeColor=none;fillColor=none;align=center;verticalAlign=middle;whiteSpace=wrap;rounded=0;glass=0;fillStyle=solid;" parent="1" vertex="1">
          <mxGeometry x="210" y="1298.35" width="60" height="30" as="geometry" />
        </mxCell>
        <mxCell id="-wmhV7_I5_4gsShTXuPr-160" value="" style="edgeStyle=elbowEdgeStyle;elbow=horizontal;endArrow=classic;html=1;rounded=0;entryX=1;entryY=0.5;entryDx=0;entryDy=0;" parent="1" target="-wmhV7_I5_4gsShTXuPr-115" edge="1">
          <mxGeometry width="50" height="50" relative="1" as="geometry">
            <mxPoint x="680" y="1658.35" as="sourcePoint" />
            <mxPoint x="640" y="1283.35" as="targetPoint" />
            <Array as="points">
              <mxPoint x="660" y="1468.35" />
              <mxPoint x="331.58" y="1245.38" />
              <mxPoint x="351.58" y="1246.7800000000002" />
              <mxPoint x="361.58" y="1251.7800000000002" />
              <mxPoint x="361.58" y="1251.7800000000002" />
              <mxPoint x="351.58" y="1246.7800000000002" />
              <mxPoint x="351.58" y="1511.7800000000002" />
              <mxPoint x="363.68" y="1511.7800000000002" />
            </Array>
          </mxGeometry>
        </mxCell>
        <mxCell id="-wmhV7_I5_4gsShTXuPr-161" value="" style="edgeStyle=elbowEdgeStyle;elbow=horizontal;endArrow=classic;html=1;rounded=0;entryX=0.994;entryY=0.111;entryDx=0;entryDy=0;entryPerimeter=0;" parent="1" target="-wmhV7_I5_4gsShTXuPr-132" edge="1">
          <mxGeometry width="50" height="50" relative="1" as="geometry">
            <mxPoint x="920" y="1588.35" as="sourcePoint" />
            <mxPoint x="860" y="1308.35" as="targetPoint" />
            <Array as="points">
              <mxPoint x="890" y="1448.35" />
              <mxPoint x="341.58" y="1255.38" />
              <mxPoint x="361.58" y="1256.7800000000002" />
              <mxPoint x="371.58" y="1261.7800000000002" />
              <mxPoint x="371.58" y="1261.7800000000002" />
              <mxPoint x="361.58" y="1256.7800000000002" />
              <mxPoint x="361.58" y="1521.7800000000002" />
              <mxPoint x="373.68" y="1521.7800000000002" />
            </Array>
          </mxGeometry>
        </mxCell>
        <mxCell id="-wmhV7_I5_4gsShTXuPr-165" value="..." style="text;html=1;strokeColor=none;fillColor=none;align=center;verticalAlign=middle;whiteSpace=wrap;rounded=0;glass=0;fillStyle=solid;" parent="1" vertex="1">
          <mxGeometry x="869" y="1170" width="60" height="30" as="geometry" />
        </mxCell>
        <mxCell id="-wmhV7_I5_4gsShTXuPr-166" value="..." style="text;html=1;strokeColor=none;fillColor=none;align=center;verticalAlign=middle;whiteSpace=wrap;rounded=0;glass=0;fillStyle=solid;" parent="1" vertex="1">
          <mxGeometry x="743" y="1028" width="60" height="30" as="geometry" />
        </mxCell>
        <mxCell id="-wmhV7_I5_4gsShTXuPr-167" value="" style="edgeStyle=elbowEdgeStyle;elbow=horizontal;endArrow=classic;html=1;rounded=0;exitX=0.75;exitY=0;exitDx=0;exitDy=0;entryX=1.013;entryY=0.962;entryDx=0;entryDy=0;entryPerimeter=0;" parent="1" source="-wmhV7_I5_4gsShTXuPr-153" target="-wmhV7_I5_4gsShTXuPr-107" edge="1">
          <mxGeometry width="50" height="50" relative="1" as="geometry">
            <mxPoint x="252.72000000000003" y="1162.15" as="sourcePoint" />
            <mxPoint x="407.48" y="1100.4500000000003" as="targetPoint" />
            <Array as="points">
              <mxPoint x="290" y="1258.35" />
              <mxPoint x="301.26" y="1048.35" />
              <mxPoint x="321.26" y="1049.75" />
              <mxPoint x="331.26" y="1054.75" />
              <mxPoint x="331.26" y="1054.75" />
              <mxPoint x="321.26" y="1049.75" />
              <mxPoint x="321.26" y="1314.75" />
              <mxPoint x="333.36" y="1314.75" />
            </Array>
          </mxGeometry>
        </mxCell>
        <mxCell id="-wmhV7_I5_4gsShTXuPr-168" value="" style="edgeStyle=elbowEdgeStyle;elbow=horizontal;endArrow=classic;html=1;rounded=0;entryX=1.013;entryY=0.914;entryDx=0;entryDy=0;entryPerimeter=0;" parent="1" target="-wmhV7_I5_4gsShTXuPr-107" edge="1">
          <mxGeometry width="50" height="50" relative="1" as="geometry">
            <mxPoint x="260" y="1298.35" as="sourcePoint" />
            <mxPoint x="252.07999999999993" y="1207.21" as="targetPoint" />
            <Array as="points">
              <mxPoint x="260" y="1268.35" />
              <mxPoint x="311.26" y="1058.35" />
              <mxPoint x="331.26" y="1059.75" />
              <mxPoint x="341.26" y="1064.75" />
              <mxPoint x="341.26" y="1064.75" />
              <mxPoint x="331.26" y="1059.75" />
              <mxPoint x="331.26" y="1324.75" />
              <mxPoint x="343.36" y="1324.75" />
            </Array>
          </mxGeometry>
        </mxCell>
        <mxCell id="-wmhV7_I5_4gsShTXuPr-169" value="Unterscheidung von Daten und Informationen" style="swimlane;fontStyle=0;childLayout=stackLayout;horizontal=1;startSize=30;horizontalStack=0;resizeParent=1;resizeParentMax=0;resizeLast=0;collapsible=1;marginBottom=0;whiteSpace=wrap;html=1;fillColor=#fff2cc;strokeColor=#d6b656;" parent="1" vertex="1">
          <mxGeometry x="160" y="1533.35" width="200" height="240" as="geometry" />
        </mxCell>
        <mxCell id="-wmhV7_I5_4gsShTXuPr-170" value="Label = &quot;01&quot;" style="text;strokeColor=none;fillColor=none;align=left;verticalAlign=middle;spacingLeft=4;spacingRight=4;overflow=hidden;points=[[0,0.5],[1,0.5]];portConstraint=eastwest;rotatable=0;whiteSpace=wrap;html=1;" parent="-wmhV7_I5_4gsShTXuPr-169" vertex="1">
          <mxGeometry y="30" width="200" height="30" as="geometry" />
        </mxCell>
        <mxCell id="-wmhV7_I5_4gsShTXuPr-171" value="ID = &quot;HH-F-Inf-P-03-01&quot;" style="text;strokeColor=none;fillColor=none;align=left;verticalAlign=middle;spacingLeft=4;spacingRight=4;overflow=hidden;points=[[0,0.5],[1,0.5]];portConstraint=eastwest;rotatable=0;whiteSpace=wrap;html=1;" parent="-wmhV7_I5_4gsShTXuPr-169" vertex="1">
          <mxGeometry y="60" width="200" height="30" as="geometry" />
        </mxCell>
        <mxCell id="-wmhV7_I5_4gsShTXuPr-172" value="ParentID = &quot;HH-F-Std-Inf-P-03&quot;" style="text;strokeColor=none;fillColor=none;align=left;verticalAlign=middle;spacingLeft=4;spacingRight=4;overflow=hidden;points=[[0,0.5],[1,0.5]];portConstraint=eastwest;rotatable=0;whiteSpace=wrap;html=1;" parent="-wmhV7_I5_4gsShTXuPr-169" vertex="1">
          <mxGeometry y="90" width="200" height="30" as="geometry" />
        </mxCell>
        <mxCell id="-wmhV7_I5_4gsShTXuPr-173" value="Type = &quot;LO&quot;" style="text;strokeColor=none;fillColor=none;align=left;verticalAlign=middle;spacingLeft=4;spacingRight=4;overflow=hidden;points=[[0,0.5],[1,0.5]];portConstraint=eastwest;rotatable=0;whiteSpace=wrap;html=1;" parent="-wmhV7_I5_4gsShTXuPr-169" vertex="1">
          <mxGeometry y="120" width="200" height="30" as="geometry" />
        </mxCell>
        <mxCell id="-wmhV7_I5_4gsShTXuPr-174" value="Description = &quot;Die Schülerinnen und Schüler unterscheiden zwischen Daten und Information,&quot;" style="text;strokeColor=none;fillColor=none;align=left;verticalAlign=middle;spacingLeft=4;spacingRight=4;overflow=hidden;points=[[0,0.5],[1,0.5]];portConstraint=eastwest;rotatable=0;whiteSpace=wrap;html=1;" parent="-wmhV7_I5_4gsShTXuPr-169" vertex="1">
          <mxGeometry y="150" width="200" height="90" as="geometry" />
        </mxCell>
        <mxCell id="-wmhV7_I5_4gsShTXuPr-175" value="" style="edgeStyle=elbowEdgeStyle;elbow=horizontal;endArrow=classic;html=1;rounded=0;exitX=-0.001;exitY=0.076;exitDx=0;exitDy=0;entryX=-0.025;entryY=-0.181;entryDx=0;entryDy=0;entryPerimeter=0;exitPerimeter=0;" parent="1" source="-wmhV7_I5_4gsShTXuPr-169" target="-wmhV7_I5_4gsShTXuPr-156" edge="1">
          <mxGeometry width="50" height="50" relative="1" as="geometry">
            <mxPoint x="305" y="1348.35" as="sourcePoint" />
            <mxPoint x="252.07999999999993" y="1207.21" as="targetPoint" />
            <Array as="points">
              <mxPoint x="120" y="1423.35" />
              <mxPoint x="341.26" y="1064.75" />
              <mxPoint x="341.26" y="1064.75" />
              <mxPoint x="331.26" y="1059.75" />
              <mxPoint x="331.26" y="1324.75" />
              <mxPoint x="343.36" y="1324.75" />
            </Array>
          </mxGeometry>
        </mxCell>
        <mxCell id="-wmhV7_I5_4gsShTXuPr-176" value="..." style="text;html=1;strokeColor=none;fillColor=none;align=center;verticalAlign=middle;whiteSpace=wrap;rounded=0;glass=0;fillStyle=solid;" parent="1" vertex="1">
          <mxGeometry x="160" y="1798.35" width="60" height="30" as="geometry" />
        </mxCell>
        <mxCell id="-wmhV7_I5_4gsShTXuPr-177" value="" style="edgeStyle=elbowEdgeStyle;elbow=horizontal;endArrow=classic;html=1;rounded=0;entryX=-0.025;entryY=-0.181;entryDx=0;entryDy=0;entryPerimeter=0;" parent="1" edge="1">
          <mxGeometry width="50" height="50" relative="1" as="geometry">
            <mxPoint x="140" y="1818.35" as="sourcePoint" />
            <mxPoint x="155.7" y="1422.6800000000003" as="targetPoint" />
            <Array as="points">
              <mxPoint x="120.19999999999999" y="1423.1100000000001" />
              <mxPoint x="341.46" y="1064.5099999999998" />
              <mxPoint x="341.46" y="1064.5099999999998" />
              <mxPoint x="331.46" y="1059.5099999999998" />
              <mxPoint x="331.46" y="1324.5100000000002" />
              <mxPoint x="343.56" y="1324.5100000000002" />
            </Array>
          </mxGeometry>
        </mxCell>
        <mxCell id="-wmhV7_I5_4gsShTXuPr-178" value="" style="edgeStyle=elbowEdgeStyle;elbow=horizontal;endArrow=classic;html=1;rounded=0;entryX=-0.025;entryY=-0.181;entryDx=0;entryDy=0;entryPerimeter=0;" parent="1" edge="1">
          <mxGeometry width="50" height="50" relative="1" as="geometry">
            <mxPoint x="835" y="1180" as="sourcePoint" />
            <mxPoint x="834.7" y="827.0000000000001" as="targetPoint" />
            <Array as="points">
              <mxPoint x="799.2" y="827.43" />
              <mxPoint x="1020.46" y="468.83000000000004" />
              <mxPoint x="1020.46" y="468.83000000000004" />
              <mxPoint x="1010.46" y="463.8299999999999" />
              <mxPoint x="1010.46" y="728.83" />
              <mxPoint x="1022.5600000000001" y="728.83" />
            </Array>
          </mxGeometry>
        </mxCell>
        <mxCell id="-wmhV7_I5_4gsShTXuPr-97" value="Informatik" style="swimlane;fontStyle=0;childLayout=stackLayout;horizontal=1;startSize=30;horizontalStack=0;resizeParent=1;resizeParentMax=0;resizeLast=0;collapsible=1;marginBottom=0;whiteSpace=wrap;html=1;fillColor=#e1d5e7;strokeColor=#9673a6;" parent="1" vertex="1">
          <mxGeometry x="290" y="880" width="140" height="210" as="geometry" />
        </mxCell>
        <mxCell id="-wmhV7_I5_4gsShTXuPr-98" value="Label = &quot;Inf&quot;" style="text;strokeColor=none;fillColor=none;align=left;verticalAlign=middle;spacingLeft=4;spacingRight=4;overflow=hidden;points=[[0,0.5],[1,0.5]];portConstraint=eastwest;rotatable=0;whiteSpace=wrap;html=1;" parent="-wmhV7_I5_4gsShTXuPr-97" vertex="1">
          <mxGeometry y="30" width="140" height="30" as="geometry" />
        </mxCell>
        <mxCell id="-wmhV7_I5_4gsShTXuPr-99" value="ID = &quot;HH-F-Std-Inf&quot;" style="text;strokeColor=none;fillColor=none;align=left;verticalAlign=middle;spacingLeft=4;spacingRight=4;overflow=hidden;points=[[0,0.5],[1,0.5]];portConstraint=eastwest;rotatable=0;whiteSpace=wrap;html=1;" parent="-wmhV7_I5_4gsShTXuPr-97" vertex="1">
          <mxGeometry y="60" width="140" height="30" as="geometry" />
        </mxCell>
        <mxCell id="-wmhV7_I5_4gsShTXuPr-179" value="ParentID = &quot;HH-F-Std&quot;" style="text;strokeColor=none;fillColor=none;align=left;verticalAlign=middle;spacingLeft=4;spacingRight=4;overflow=hidden;points=[[0,0.5],[1,0.5]];portConstraint=eastwest;rotatable=0;whiteSpace=wrap;html=1;" parent="-wmhV7_I5_4gsShTXuPr-97" vertex="1">
          <mxGeometry y="90" width="140" height="30" as="geometry" />
        </mxCell>
        <mxCell id="-wmhV7_I5_4gsShTXuPr-101" value="Type = &quot;Subject&quot;" style="text;strokeColor=none;fillColor=none;align=left;verticalAlign=middle;spacingLeft=4;spacingRight=4;overflow=hidden;points=[[0,0.5],[1,0.5]];portConstraint=eastwest;rotatable=0;whiteSpace=wrap;html=1;" parent="-wmhV7_I5_4gsShTXuPr-97" vertex="1">
          <mxGeometry y="120" width="140" height="30" as="geometry" />
        </mxCell>
        <mxCell id="-wmhV7_I5_4gsShTXuPr-182" value="Responsible = Tobias Dorn. KAIFU" style="text;strokeColor=none;fillColor=#E6E6E6;align=left;verticalAlign=middle;spacingLeft=4;spacingRight=4;overflow=hidden;points=[[0,0.5],[1,0.5]];portConstraint=eastwest;rotatable=0;whiteSpace=wrap;html=1;" parent="-wmhV7_I5_4gsShTXuPr-97" vertex="1">
          <mxGeometry y="150" width="140" height="30" as="geometry" />
        </mxCell>
        <mxCell id="-wmhV7_I5_4gsShTXuPr-183" value="Status = &quot;Veröffentlicht (BETA)&quot;" style="text;strokeColor=#2D7600;fillColor=#60a917;align=left;verticalAlign=middle;spacingLeft=4;spacingRight=4;overflow=hidden;points=[[0,0.5],[1,0.5]];portConstraint=eastwest;rotatable=0;whiteSpace=wrap;html=1;fontColor=#ffffff;" parent="-wmhV7_I5_4gsShTXuPr-97" vertex="1">
          <mxGeometry y="180" width="140" height="30" as="geometry" />
        </mxCell>
        <mxCell id="-wmhV7_I5_4gsShTXuPr-338" value="" style="edgeStyle=elbowEdgeStyle;elbow=vertical;endArrow=classic;html=1;rounded=0;entryX=0.814;entryY=1.113;entryDx=0;entryDy=0;entryPerimeter=0;exitX=1.007;exitY=0.144;exitDx=0;exitDy=0;exitPerimeter=0;" parent="1" source="-wmhV7_I5_4gsShTXuPr-339" target="-wmhV7_I5_4gsShTXuPr-82" edge="1">
          <mxGeometry width="50" height="50" relative="1" as="geometry">
            <mxPoint x="160" y="820" as="sourcePoint" />
            <mxPoint x="141.27999999999994" y="710" as="targetPoint" />
            <Array as="points">
              <mxPoint x="200" y="850" />
            </Array>
          </mxGeometry>
        </mxCell>
        <mxCell id="-wmhV7_I5_4gsShTXuPr-339" value="&amp;lt;Fach&amp;gt;" style="swimlane;fontStyle=0;childLayout=stackLayout;horizontal=1;startSize=30;horizontalStack=0;resizeParent=1;resizeParentMax=0;resizeLast=0;collapsible=1;marginBottom=0;whiteSpace=wrap;html=1;glass=0;fillStyle=solid;strokeWidth=1;fillColor=#e1d5e7;strokeColor=#9673a6;" parent="1" vertex="1">
          <mxGeometry x="40" y="830" width="140" height="230" as="geometry" />
        </mxCell>
        <mxCell id="-wmhV7_I5_4gsShTXuPr-349" value="Label = &amp;lt;Fachkürzel&amp;gt;" style="text;strokeColor=none;fillColor=none;align=left;verticalAlign=middle;spacingLeft=4;spacingRight=4;overflow=hidden;points=[[0,0.5],[1,0.5]];portConstraint=eastwest;rotatable=0;whiteSpace=wrap;html=1;" parent="-wmhV7_I5_4gsShTXuPr-339" vertex="1">
          <mxGeometry y="30" width="140" height="30" as="geometry" />
        </mxCell>
        <mxCell id="-wmhV7_I5_4gsShTXuPr-350" value="ID = &quot;HH-F-Sek-&amp;lt;Fachkürzel&amp;gt;&quot;" style="text;strokeColor=none;fillColor=none;align=left;verticalAlign=middle;spacingLeft=4;spacingRight=4;overflow=hidden;points=[[0,0.5],[1,0.5]];portConstraint=eastwest;rotatable=0;whiteSpace=wrap;html=1;" parent="-wmhV7_I5_4gsShTXuPr-339" vertex="1">
          <mxGeometry y="60" width="140" height="30" as="geometry" />
        </mxCell>
        <mxCell id="-wmhV7_I5_4gsShTXuPr-348" value="Status = Offen" style="text;strokeColor=none;fillColor=none;align=left;verticalAlign=middle;spacingLeft=4;spacingRight=4;overflow=hidden;points=[[0,0.5],[1,0.5]];portConstraint=eastwest;rotatable=0;whiteSpace=wrap;html=1;" parent="-wmhV7_I5_4gsShTXuPr-339" vertex="1">
          <mxGeometry y="90" width="140" height="30" as="geometry" />
        </mxCell>
        <mxCell id="-wmhV7_I5_4gsShTXuPr-347" value="Responsible = NN" style="text;strokeColor=none;fillColor=none;align=left;verticalAlign=middle;spacingLeft=4;spacingRight=4;overflow=hidden;points=[[0,0.5],[1,0.5]];portConstraint=eastwest;rotatable=0;whiteSpace=wrap;html=1;" parent="-wmhV7_I5_4gsShTXuPr-339" vertex="1">
          <mxGeometry y="120" width="140" height="50" as="geometry" />
        </mxCell>
        <mxCell id="-wmhV7_I5_4gsShTXuPr-346" value="Type = &quot;Subject&quot;" style="text;strokeColor=none;fillColor=none;align=left;verticalAlign=middle;spacingLeft=4;spacingRight=4;overflow=hidden;points=[[0,0.5],[1,0.5]];portConstraint=eastwest;rotatable=0;whiteSpace=wrap;html=1;" parent="-wmhV7_I5_4gsShTXuPr-339" vertex="1">
          <mxGeometry y="170" width="140" height="30" as="geometry" />
        </mxCell>
        <mxCell id="-wmhV7_I5_4gsShTXuPr-345" value="ParentID = &quot;HH-F-Std&quot;" style="text;strokeColor=none;fillColor=none;align=left;verticalAlign=middle;spacingLeft=4;spacingRight=4;overflow=hidden;points=[[0,0.5],[1,0.5]];portConstraint=eastwest;rotatable=0;whiteSpace=wrap;html=1;" parent="-wmhV7_I5_4gsShTXuPr-339" vertex="1">
          <mxGeometry y="200" width="140" height="30" as="geometry" />
        </mxCell>
        <mxCell id="-wmhV7_I5_4gsShTXuPr-351" value="..." style="text;html=1;strokeColor=none;fillColor=none;align=center;verticalAlign=middle;whiteSpace=wrap;rounded=0;glass=0;fillStyle=solid;" parent="1" vertex="1">
          <mxGeometry x="80" y="1080" width="60" height="30" as="geometry" />
        </mxCell>
        <mxCell id="-wmhV7_I5_4gsShTXuPr-352" value="" style="edgeStyle=elbowEdgeStyle;elbow=vertical;endArrow=classic;html=1;rounded=0;entryX=0.805;entryY=1.142;entryDx=0;entryDy=0;entryPerimeter=0;" parent="1" target="-wmhV7_I5_4gsShTXuPr-82" edge="1">
          <mxGeometry width="50" height="50" relative="1" as="geometry">
            <mxPoint x="160" y="1090" as="sourcePoint" />
            <mxPoint x="223.96000000000004" y="723.3900000000001" as="targetPoint" />
            <Array as="points">
              <mxPoint x="190" y="1090" />
            </Array>
          </mxGeometry>
        </mxCell>
      </root>
    </mxGraphModel>
  </diagram>
</mxfile>
